HIERARCHY
ROOT Pelvis
{
	OFFSET 0.000000 0.000000 0.000000
	CHANNELS 6 Xposition Yposition Zposition Xrotation Yrotation Zrotation
	JOINT LeftUpLeg_virtual
	{
		OFFSET 0.000000 0.000000 0.000000
		CHANNELS 3 Xrotation Yrotation Zrotation
		JOINT LeftUpLeg
		{
			OFFSET 18.735201 -5.666702 -4.541200
			CHANNELS 3 Xrotation Yrotation Zrotation
			JOINT LeftLeg
			{
				OFFSET -0.021200 -31.938179 0.493100
				CHANNELS 3 Xrotation Yrotation Zrotation
				JOINT LeftFoot
				{
					OFFSET 0.021200 -31.938179 -4.336299
					CHANNELS 3 Xrotation Yrotation Zrotation
					JOINT LeftToeBase
					{
						OFFSET 0.943001 -26.722000 15.023500
						CHANNELS 3 Xrotation Yrotation Zrotation
						End Site
						{
							OFFSET 0 0 0
						}
					}
				}
			}
		}
	}
	JOINT RightUpLeg_virtual
	{
		OFFSET 0.000000 0.000000 0.000000
		CHANNELS 3 Xrotation Yrotation Zrotation
		JOINT RightUpLeg
		{
			OFFSET -18.735201 -5.666702 -4.541200
			CHANNELS 3 Xrotation Yrotation Zrotation
			JOINT RightLeg
			{
				OFFSET 0.018946 -31.938133 0.493100
				CHANNELS 3 Xrotation Yrotation Zrotation
				JOINT RightFoot
				{
					OFFSET -0.018946 -31.938126 -4.336299
					CHANNELS 3 Xrotation Yrotation Zrotation
					JOINT RightToeBase
					{
						OFFSET -0.943001 -26.722004 15.023500
						CHANNELS 3 Xrotation Yrotation Zrotation
						End Site
						{
							OFFSET 0 0 0
						}
					}
				}
			}
		}
	}
	JOINT Hips_virtual
	{
		OFFSET 0.000000 0.000000 0.000000
		CHANNELS 3 Xrotation Yrotation Zrotation
		JOINT Hips
		{
			OFFSET -0.000000 -0.000000 -0.000000
			CHANNELS 3 Xrotation Yrotation Zrotation
			JOINT Spine
			{
				OFFSET 0.000000 10.199997 -0.299500
				CHANNELS 3 Xrotation Yrotation Zrotation
				JOINT Spine1
				{
					OFFSET 0.000000 11.900002 -1.516600
					CHANNELS 3 Xrotation Yrotation Zrotation
					JOINT Spine2
					{
						OFFSET 0.000000 13.600006 -2.842500
						CHANNELS 3 Xrotation Yrotation Zrotation
						JOINT Neck_virtual
						{
							OFFSET 0.000000 0.000000 0.000000
							CHANNELS 3 Xrotation Yrotation Zrotation
							JOINT Neck
							{
								OFFSET 0.000000 9.624100 -2.890100
								CHANNELS 3 Xrotation Yrotation Zrotation
								JOINT Head
								{
									OFFSET 0.000000 14.068802 -1.351900
									CHANNELS 3 Xrotation Yrotation Zrotation
									End Site
									{
										OFFSET 0 0 0
									}
								}
							}
						}
						JOINT LeftShoulder_virtual
						{
							OFFSET 0.000000 0.000000 0.000000
							CHANNELS 3 Xrotation Yrotation Zrotation
							JOINT LeftShoulder
							{
								OFFSET 15.263000 10.923401 -0.547700
								CHANNELS 3 Xrotation Yrotation Zrotation
								JOINT LeftArm
								{
									OFFSET 25.438599 -2.830597 -13.032500
									CHANNELS 3 Xrotation Yrotation Zrotation
									JOINT LeftForeArm
									{
										OFFSET 29.960503 0.000000 0.000000
										CHANNELS 3 Xrotation Yrotation Zrotation
										JOINT LeftHand
										{
											OFFSET 27.849251 0.000000 0.000000
											CHANNELS 3 Xrotation Yrotation Zrotation
											End Site
											{
												OFFSET 0 0 0
											}
										}
									}
								}
							}
						}
						JOINT RightShoulder_virtual
						{
							OFFSET 0.000000 0.000000 0.000000
							CHANNELS 3 Xrotation Yrotation Zrotation
							JOINT RightShoulder
							{
								OFFSET -15.263000 10.923401 -0.547700
								CHANNELS 3 Xrotation Yrotation Zrotation
								JOINT RightArm
								{
									OFFSET -25.438599 -2.830597 -13.032500
									CHANNELS 3 Xrotation Yrotation Zrotation
									JOINT RightForeArm
									{
										OFFSET -29.960503 0.000000 0.000000
										CHANNELS 3 Xrotation Yrotation Zrotation
										JOINT RightHand
										{
											OFFSET -27.849251 0.000000 0.000000
											CHANNELS 3 Xrotation Yrotation Zrotation
											End Site
											{
												OFFSET 0 0 0
											}
										}
									}
								}
							}
						}
					}
				}
			}
		}
	}
}
MOTION
Frames: 7
Frame Time: 0.03333333
-121.582329 39.712120 8.146502 0.000000 0.000000 0.000000 -25.306804 41.303616 -40.877043 -92.472907 28.637656 4.438043 58.507858 1.872791 18.017160 -1.424879 -7.836851 18.993545 0.000000 0.000000 0.000000 -32.987280 25.658174 -12.117371 -72.077607 14.178767 -26.429284 99.886537 14.920958 -7.855979 27.880180 21.312436 19.196663 0.000000 0.000000 0.000000 6.914809 -9.032193 -5.174103 18.589483 -5.621715 -39.992257 20.508821 -0.894981 -6.373127 8.314370 0.431783 -2.802743 0.000000 0.000000 0.000000 5.822315 1.608018 -2.327757 0.708305 0.953653 -0.863337 0.000000 0.000000 0.000000 7.740122 -0.292525 -3.330292 0.412597 -11.104192 -16.066159 -26.446771 10.972649 -24.231877 -4.931799 -26.252732 2.712787 0.000000 0.000000 0.000000 5.529795 1.459781 -2.835442 1.393520 6.501012 -8.000589 -23.366805 -24.668548 14.275695 -6.923609 17.982536 -3.508285 0.000000 0.000000 0.000000 
-120.817123 40.701233 7.057936 0.000000 0.000000 0.000000 -24.568682 41.547788 -41.897682 -92.359293 29.020309 4.188263 59.203875 2.660622 18.034198 -1.126210 -7.209055 19.479177 0.000000 0.000000 0.000000 -32.526993 26.522707 -11.943043 -71.645741 14.326095 -26.336977 97.746858 15.167410 -7.380918 26.263961 20.982939 19.867543 0.000000 0.000000 0.000000 6.589598 -9.709052 -5.322883 17.800211 -6.012509 -41.059692 20.306111 -1.256579 -6.777341 8.275288 0.260110 -3.091520 0.000000 0.000000 0.000000 5.930913 1.480067 -2.441995 0.688926 0.987656 -0.905131 0.000000 0.000000 0.000000 7.818282 -0.396029 -3.301834 0.536297 -10.787313 -15.868759 -27.050404 10.665027 -24.146361 -5.213922 -27.331094 2.895886 0.000000 0.000000 0.000000 5.503302 1.321093 -3.103922 1.298506 5.781319 -8.771002 -22.672948 -26.346152 12.892367 -6.674141 18.132378 -4.158285 0.000000 0.000000 0.000000 
-120.109894 41.862370 5.955076 0.000000 0.000000 0.000000 -23.624859 41.846428 -42.978299 -92.191086 29.399538 4.003060 60.283127 3.689290 17.861454 -0.598052 -6.306683 19.908758 0.000000 0.000000 0.000000 -31.970469 27.364089 -11.848805 -71.137547 14.470502 -26.303523 95.559380 15.275974 -6.853370 24.719621 20.500603 20.416136 0.000000 0.000000 0.000000 6.311332 -10.407708 -5.453996 17.204746 -6.394104 -42.096409 20.127569 -1.652287 -7.111406 8.250576 0.063875 -3.340323 0.000000 0.000000 0.000000 5.992904 1.334852 -2.531221 0.655189 1.014745 -0.939599 0.000000 0.000000 0.000000 7.882276 -0.526476 -3.235697 0.649924 -10.545821 -15.556910 -27.763879 10.311932 -23.970009 -5.514582 -28.397133 3.078895 0.000000 0.000000 0.000000 5.450190 1.156961 -3.328207 1.170005 5.029383 -9.419452 -22.037194 -27.975686 11.701124 -6.449093 18.411863 -4.747464 0.000000 0.000000 0.000000 
-119.457611 43.171562 4.852288 0.000000 0.000000 0.000000 -22.444268 42.235615 -44.143116 -91.967097 29.791629 3.874216 61.738230 4.949252 17.473446 0.134001 -5.124844 20.255682 0.000000 0.000000 0.000000 -31.338776 28.212778 -11.848049 -70.575962 14.627004 -26.339791 93.423409 15.263075 -6.287904 23.287059 19.900379 20.870565 0.000000 0.000000 0.000000 6.079765 -11.107714 -5.570785 16.809338 -6.754573 -43.105160 19.968760 -2.077434 -7.376166 8.235851 -0.153456 -3.548214 0.000000 0.000000 0.000000 6.008443 1.174110 -2.595649 0.607826 1.034714 -0.966284 0.000000 0.000000 0.000000 7.925289 -0.681734 -3.133949 0.748761 -10.379882 -15.135054 -28.583717 9.913971 -23.706431 -5.832827 -29.441496 3.259620 0.000000 0.000000 0.000000 5.364953 0.968435 -3.507601 1.006274 4.246671 -9.943551 -21.465676 -29.559993 10.721073 -6.257281 18.796839 -5.261689 0.000000 0.000000 0.000000 
-118.853737 44.595814 3.755717 0.000000 0.000000 0.000000 -21.001942 42.728673 -45.410953 -91.677661 30.211832 3.783826 63.527733 6.401232 16.847225 1.024885 -3.682402 20.480706 0.000000 0.000000 0.000000 -30.672874 29.088529 -11.942536 -70.002117 14.806899 -26.448133 91.442655 15.152829 -5.697782 22.000466 19.218966 21.268893 0.000000 0.000000 0.000000 5.892715 -11.782473 -5.676992 16.617773 -7.073699 -44.087427 19.825099 -2.525634 -7.576457 8.226762 -0.387255 -3.716537 0.000000 0.000000 0.000000 5.980283 1.000797 -2.638044 0.548701 1.047878 -0.985797 0.000000 0.000000 0.000000 7.942379 -0.858380 -3.000707 0.829579 -10.287448 -14.613004 -29.506246 9.473265 -23.360712 -6.168071 -30.454973 3.436094 0.000000 0.000000 0.000000 5.246792 0.758839 -3.644260 0.811139 3.441630 -10.350842 -20.955618 -31.092350 9.964215 -6.103856 19.270885 -5.689678 0.000000 0.000000 0.000000 
-118.289017 46.097698 2.664569 0.000000 0.000000 0.000000 -19.290232 43.305957 -46.788807 -91.307267 30.669209 3.707994 65.587151 7.984554 15.971585 2.020373 -2.020018 20.545890 0.000000 0.000000 0.000000 -30.026167 29.991309 -12.121256 -69.468283 15.013456 -26.621296 89.715272 14.977463 -5.091364 20.885492 18.493702 21.660442 0.000000 0.000000 0.000000 5.747456 -12.404102 -5.775702 16.632506 -7.330951 -45.039811 19.692632 -2.989831 -7.719827 8.219497 -0.632407 -3.848311 0.000000 0.000000 0.000000 5.913360 0.818880 -2.662869 0.480576 1.054924 -0.999439 0.000000 0.000000 0.000000 7.930909 -1.052228 -2.841597 0.890735 -10.266015 -14.004441 -30.526123 8.993776 -22.937696 -6.519348 -31.427295 3.607411 0.000000 0.000000 0.000000 5.099552 0.533327 -3.742032 0.593341 2.628560 -10.654310 -20.493400 -32.557623 9.439476 -5.989655 19.823685 -6.022122 0.000000 0.000000 0.000000 
-117.753220 47.640541 1.573285 0.000000 0.000000 0.000000 -17.331906 43.907868 -48.260679 -90.837541 31.160566 3.622772 67.844290 9.630773 14.854657 3.069127 -0.193558 20.429567 0.000000 0.000000 0.000000 -29.453972 30.898485 -12.362051 -69.027224 15.239960 -26.843659 88.322884 14.774935 -4.470408 19.957166 17.760432 22.102185 0.000000 0.000000 0.000000 5.641905 -12.947751 -5.868737 16.854846 -7.512465 -45.952956 19.568729 -3.462979 -7.815218 8.211219 -0.883806 -3.947585 0.000000 0.000000 0.000000 5.813935 0.633005 -2.675262 0.406693 1.056723 -1.008742 0.000000 0.000000 0.000000 7.890614 -1.258804 -2.663013 0.932129 -10.313999 -13.324795 -31.634981 8.481439 -22.441254 -6.884608 -32.346369 3.774153 0.000000 0.000000 0.000000 4.930828 0.298328 -3.805276 0.365128 1.826058 -10.867783 -20.055148 -33.933736 9.155711 -5.911402 20.448225 -6.250647 0.000000 0.000000 0.000000 
